<svg width="1440" height="430" viewBox="0 0 1440 430" fill="none" xmlns="http://www.w3.org/2000/svg">
<path d="M16.9823 168H0V354H1440V0H1427.01L1387.06 31.5H1348.1C1332.91 27.5 1301.81 35.5 1288.16 40L1262.68 36.5C1258.69 33.7 1223.06 30.3333 1205.74 29L1189.76 22.5L1178.27 29H1162.79L1138.81 16.5C1108.45 21.7 1086.53 42.6667 1079.38 52.5L1047.41 26L1002.96 31.5L985.973 26L980.479 31.5L969.99 29L958.002 31.5V36.5L949.011 40L931.03 60.5H922.04L918.044 68.5L895.068 71.5C857.507 83.5 847.118 100.167 846.618 107H826.139L819.646 112L796.67 114.5L777.19 117L744.225 120.5L726.743 129.5L714.256 120.5L708.762 126L695.276 123L674.797 117L663.809 120.5L615.359 126H587.888L556.42 140C542.835 141.6 525.453 155 518.46 161.5L491.988 176H450.031L442.04 173H400.583L294.194 145C289.399 137.799 269.553 151.333 260.229 159L232.258 161.5C229.061 182.3 210.614 174.5 201.79 168L187.305 164.5L174.818 151.5C168.025 142.7 156.337 147.833 151.342 151.5L134.36 142.5L126.368 151.5H100.395L92.4037 145H58.4391C48.0499 143.4 26.4724 159.666 16.9823 168Z" fill="#EBEBEB"/>
<path d="M1428.51 129.511C1431.34 128.174 1437.6 125.401 1440 125V332H854L914.948 293.908L927.937 288.395L980.392 290.4L1071.31 231.758C1096.49 233.362 1155.08 220.063 1181.22 213.213H1204.2C1205.8 213.213 1273.81 176.792 1307.61 158.581H1336.59L1406.53 129.511H1428.51Z" fill="#DEDEDE"/>
<path d="M-1 351.534C96.3493 322.371 307.92 263.846 375.406 263.047L533.763 251.048C559.195 250.175 590.892 261.394 626.564 263.047L735.989 261.928C773.962 261.928 837.918 310.393 913.623 330.537L957.335 326.37L1044.85 330.537H1099.61L1245.14 320.038L1306.31 288.043L1338.38 273.545H1440V582H-1V351.534Z" fill="#C7C7C7"/>
<path d="M11.5 303.5C8.5 303.5 0 295 0 295V618.5H837V600.5L862.5 596.5L878 581L906.5 576C912.1 556.4 887.5 542.833 874.5 538.5H865.5L799.5 510.5L674 471.5L619.5 446C607.9 432.8 571 415.5 554 408.5L488 379.5C488 379.5 475.5 378.5 469 377.5C450.102 374.593 398.667 379.667 375 384L288 375.5L259.5 372.5C259.5 372.5 241 359 239 359C237 359 229 364.5 229 364.5L197.5 353.5L127 333L80 320.5L36 308C36 308 21 299.5 20 299.5C19 299.5 14.5 303.5 11.5 303.5Z" fill="#B3B3B3"/>
</svg>
