<svg width="1394" height="172" viewBox="0 0 1394 172" fill="none" xmlns="http://www.w3.org/2000/svg">
<path d="M92.2089 76.0105C129.703 76.0105 156.46 102.086 156.46 140.432V245.586H111.978V154.748C111.978 130.718 100.219 117.765 79.7677 117.765C60.6799 117.765 44.8301 130.036 44.8301 155.089V245.586H0.348633V80.4417H43.6371V99.8704C55.3966 82.3163 73.2915 76.0105 92.2089 76.0105Z" fill="#58595B" fill-opacity="0.32"/>
<path d="M347.277 245.586H303.818V227.35C292.911 240.814 277.061 249.846 254.394 249.846C208.72 249.846 174.464 212.523 174.464 162.928C174.464 113.334 208.72 76.0105 254.394 76.0105C277.061 76.0105 292.911 85.0432 303.818 98.6774V80.4417H347.277V245.586ZM262.575 117.424C236.499 117.424 219.968 137.705 219.968 162.928C219.968 188.152 236.499 208.432 262.575 208.432C287.968 208.432 305.182 189.004 305.182 162.928C305.182 136.853 287.968 117.424 262.575 117.424Z" fill="#58595B" fill-opacity="0.32"/>
<path d="M421.501 98.1661C433.26 81.8051 450.644 76.0105 468.88 76.0105C506.374 76.0105 533.131 102.086 533.131 140.432V245.586H488.649V154.748C488.649 130.718 476.89 117.765 456.438 117.765C437.351 117.765 421.501 130.036 421.501 155.089V245.586H377.019V0H421.501V98.1661Z" fill="#58595B" fill-opacity="0.32"/>
<path d="M679.506 119.981H619.686V180.312C619.686 200.763 630.764 208.432 644.398 208.432C655.135 208.432 666.383 203.149 675.416 197.696L691.777 232.463C677.291 242.518 660.419 249.846 637.07 249.846C595.997 249.846 575.205 226.839 575.205 183.891V119.981H543.335V80.4417H575.205V31.3586H619.686V80.4417H679.506V119.981Z" fill="#58595B" fill-opacity="0.32"/>
<path d="M773.05 76.0105C820.599 76.0105 853.321 111.289 853.321 162.758C853.321 168.041 852.98 173.836 852.469 177.756H735.385C739.816 201.615 756.859 212.011 777.822 212.011C792.137 212.011 807.476 206.387 819.576 196.162L845.652 224.793C826.734 242.007 803.215 249.846 775.265 249.846C724.819 249.846 689.54 215.25 689.54 163.44C689.54 111.63 723.626 76.0105 773.05 76.0105ZM772.709 114.357C751.576 114.357 739.475 126.798 735.556 147.42H808.669C804.579 126.116 791.967 114.357 772.709 114.357Z" fill="#58595B" fill-opacity="0.32"/>
<path d="M1035.04 245.586H991.585V227.35C980.678 240.814 964.828 249.846 942.161 249.846C896.487 249.846 862.231 212.523 862.231 162.928C862.231 113.334 896.487 76.0105 942.161 76.0105C964.828 76.0105 980.678 85.0432 991.585 98.6774V80.4417H1035.04V245.586ZM950.342 117.424C924.266 117.424 907.735 137.705 907.735 162.928C907.735 188.152 924.266 208.432 950.342 208.432C975.736 208.432 992.949 189.004 992.949 162.928C992.949 136.853 975.736 117.424 950.342 117.424Z" fill="#58595B" fill-opacity="0.32"/>
<path d="M1161.08 245.586H1109.78L1044.51 80.4417H1092.91L1135.68 198.718L1178.8 80.4417H1225.67L1161.08 245.586Z" fill="#58595B" fill-opacity="0.32"/>
<path d="M1393.07 245.586H1349.62V227.35C1338.71 240.814 1322.86 249.846 1300.19 249.846C1254.52 249.846 1220.26 212.523 1220.26 162.928C1220.26 113.334 1254.52 76.0105 1300.19 76.0105C1322.86 76.0105 1338.71 85.0432 1349.62 98.6774V80.4417H1393.07V245.586ZM1308.37 117.424C1282.3 117.424 1265.77 137.705 1265.77 162.928C1265.77 188.152 1282.3 208.432 1308.37 208.432C1333.77 208.432 1350.98 189.004 1350.98 162.928C1350.98 136.853 1333.77 117.424 1308.37 117.424Z" fill="#58595B" fill-opacity="0.32"/>
</svg>
