<svg width="140" height="140" viewBox="0 0 140 140" fill="none" xmlns="http://www.w3.org/2000/svg">
<rect width="140" height="140" fill="white"/>
<path d="M34.0873 120.882C36.5333 116.276 34.8064 110.572 30.2302 108.142C25.654 105.712 19.9615 107.475 17.5155 112.081C15.0696 116.687 16.7965 122.391 21.3727 124.821C25.9488 127.251 31.6414 125.488 34.0873 120.882Z" fill="#F7941D"/>
<path d="M44.9599 127.139C41.6494 125.38 37.5205 126.651 35.7492 129.986C33.9779 133.321 35.2239 137.449 38.5466 139.209C41.8571 140.968 45.986 139.697 47.7573 136.362C49.5286 133.027 48.2826 128.898 44.9599 127.139Z" fill="#F7941D"/>
<path d="M111.939 32.5647C116.337 35.2889 122.139 33.9085 124.888 29.4864C127.637 25.052 126.293 19.2495 121.883 16.5254C117.485 13.8013 111.683 15.1816 108.934 19.6038C106.186 24.0381 107.529 29.8406 111.939 32.5647Z" fill="#F7941D"/>
<path d="M98.477 12.645C101.665 14.624 105.868 13.6223 107.859 10.4095C109.85 7.19677 108.873 2.99452 105.684 1.01556C102.496 -0.9634 98.2938 0.0382988 96.3026 3.25106C94.3114 6.46382 95.2887 10.6661 98.477 12.645Z" fill="#F7941D"/>
<path d="M100.334 57.4199L100.309 56.8824C100.212 54.5736 99.894 52.1427 99.271 49.0276C98.306 44.2268 96.6935 39.597 94.3481 34.8695C92.8577 31.8644 91.0131 29.1158 89.2541 26.5505C87.5561 24.0829 85.5527 21.7985 83.1095 19.5631C81.155 17.7795 79.0661 15.8861 76.8184 14.2003C73.3491 11.6106 69.5377 9.39949 65.4699 7.62819C61.4875 5.89355 57.2731 4.61089 52.9364 3.81687C49.1129 3.12056 46.0223 2.82738 43.1882 2.91289H21.5418C19.4773 2.91289 17.4128 2.88845 15.3361 2.85181C15.0063 2.85181 14.6887 2.82738 14.3589 2.80295C14.0901 2.80295 13.8092 2.7663 13.5404 2.7663C11.9279 2.7663 10.3032 2.7663 8.69075 2.74187C7.82342 2.74187 6.9561 2.70522 6.10099 2.68078C5.23367 2.65635 4.36635 2.63194 3.49902 2.61972V89.7673L3.53567 90.0483C3.60896 93.9818 5.79559 97.5611 9.24045 99.3812C11.7813 100.737 14.7009 101.006 17.4739 100.151C20.2347 99.2957 22.519 97.4145 23.875 94.8491C24.6202 93.4443 25.0477 91.9173 25.1332 90.3048V90.0239C25.1332 89.7918 25.1577 89.6086 25.1332 89.4131V28.444C25.1332 25.9397 26.1105 24.9624 28.6147 24.9624H32.4383C35.9198 24.9624 39.4013 24.9624 42.8828 24.9624C44.4465 24.9624 46.0345 25.0968 47.6103 25.3411C51.9836 25.9886 56.1981 27.4422 60.156 29.6533C63.3077 31.4246 66.2272 33.7212 69.1102 36.6896C71.4312 39.0839 73.1047 41.9058 74.4363 44.3612C75.78 46.8288 76.8184 49.5895 77.5391 52.5702C78.0277 54.6102 78.3331 56.7236 78.4919 59.0201C78.5897 60.4983 78.5774 61.9642 78.5652 63.3812V65.0548C78.5652 67.4979 78.6141 69.6601 78.6629 71.6635C78.6874 72.5064 78.7607 73.447 78.9073 74.5342C79.2371 77.1362 80.1899 79.5672 81.1794 81.8149C81.4359 82.4012 81.778 82.9753 82.12 83.5128C83.1462 85.1376 84.4777 86.6768 86.4322 88.4847C88.6799 90.5614 91.2086 92.1494 93.9327 93.2122C95.6796 93.8963 97.6585 94.3605 99.9673 94.6292C100.114 94.6415 100.261 94.6537 100.407 94.6659V59.8752C100.407 59.0568 100.37 58.2505 100.334 57.4321V57.4076V57.4199Z" fill="#F7941D"/>
<path d="M61.9156 58.7638C61.3781 55.832 60.3153 53.1812 58.7639 50.8846C57.298 48.7102 55.2457 45.9861 52.3994 44.0926C51.0435 43.1887 49.6997 42.3213 48.2583 41.6983C45.8151 40.6356 43.2131 39.9881 40.5012 39.7682L40.5257 44.8011C40.5501 48.5025 40.5745 52.2039 40.5868 55.8931V63.186C40.5868 66.5453 40.5868 69.9046 40.5868 73.264C40.5868 76.0614 40.7578 78.5657 41.0632 80.9355C41.5396 84.6491 42.3092 88.1917 43.3597 91.4533C44.4103 94.7272 45.7663 97.9155 47.4032 100.933C48.014 102.069 48.7103 103.205 49.3821 104.304L49.6264 104.695C49.7486 104.903 49.9074 105.098 50.054 105.294C50.2617 105.575 50.4816 105.856 50.6648 106.161C52.656 109.411 55.0625 112.306 57.8233 114.773C58.2997 115.201 58.7639 115.665 59.2281 116.117C59.6068 116.496 59.9855 116.862 60.3764 117.229C60.694 117.522 61.036 117.766 61.3903 118.035C61.5735 118.169 61.7568 118.304 61.94 118.45C62.3187 118.743 62.6852 119.037 63.0638 119.33C63.8823 119.977 64.6519 120.588 65.4582 121.162C68.9275 123.581 72.3234 125.474 75.8538 126.94C83.1833 130.006 90.2807 131.497 97.5735 131.497H137.409C137.507 121.419 137.373 59.3013 137.324 52.6193V52.5215C137.544 48.5514 135.601 44.8011 132.254 42.7245C129.799 41.2097 126.904 40.7455 124.094 41.4051C121.272 42.077 118.89 43.7995 117.351 46.2793C116.166 48.1971 115.604 50.4082 115.738 52.6803V56.8093L115.8 100.517V106.613C115.775 107.859 115.274 109.313 113.039 109.472C112.342 109.521 111.622 109.545 110.864 109.533C109.814 109.533 108.751 109.508 107.7 109.496C106.491 109.484 105.294 109.459 104.085 109.447C103.73 109.447 103.388 109.459 103.046 109.484C102.643 109.508 102.24 109.521 101.825 109.521C101.299 109.521 100.774 109.496 100.249 109.484C99.7113 109.459 99.186 109.447 98.6363 109.447C96.9017 109.447 94.5929 109.398 92.2352 108.934C90.0608 108.494 88.1063 108.067 86.1884 107.236C85.7731 107.065 85.3699 106.882 84.9546 106.711C84.0506 106.332 83.11 105.941 82.1816 105.502C81.3632 105.111 80.6058 104.634 79.885 104.182L79.4086 103.889C79.1765 103.742 78.9566 103.571 78.7367 103.4C78.6268 103.315 78.5291 103.217 78.4191 103.156C76.9655 102.362 75.7194 101.324 74.62 100.408C71.3584 97.6834 68.6343 94.1775 66.3133 89.6943C65.7147 88.546 65.1772 87.2755 64.6031 85.6875C64.1022 84.2949 63.5403 82.6458 63.186 80.8989C62.6974 78.5657 62.4408 76.0003 62.3676 72.8364C62.3676 72.2501 62.3676 71.6759 62.4042 71.0896C62.4286 70.6498 62.4408 70.1978 62.4408 69.7581C62.4408 69.0007 62.4164 68.2555 62.4042 67.4981C62.3798 66.3376 62.3431 65.1649 62.3676 64.0044C62.392 62.4408 62.2332 60.7672 61.8667 58.7516H61.9034L61.9156 58.7638Z" fill="#F7941D"/>
</svg>
